<svg xmlns="http://www.w3.org/2000/svg" viewBox="0 0 110.57 110.57"><defs><style>.cls-1{fill:#e83f64;}.cls-2{fill:#f27e8b;}.cls-3{fill:#d1385a;}.cls-4{fill:#3c3c3c;}.cls-5{fill:#fff;}</style></defs><title>Ресурс 2</title><g id="Слой_2" data-name="Слой 2"><g id="OBJECTS"><circle class="cls-1" cx="55.28" cy="55.28" r="55.28"/><path class="cls-2" d="M99.86,30.86C98.7,24.1,92.46,18,87.13,14.05,82,10.24,75.68,6.51,69.12,7.8a1.33,1.33,0,0,0-.7,2c3.59,4.3,8.88,6.83,13.13,10.43A53,53,0,0,1,88.42,27c1.84,2.26,3.28,4.78,5.6,6.59C96.11,35.25,100.42,34.13,99.86,30.86Z"/><path class="cls-2" d="M103.4,39.53c-1.75-2.4-5.73-.69-4.78,2.3s.74,6.28,1.18,9.44a3.81,3.81,0,0,0,3.45,3.54,3.74,3.74,0,0,0,4-2.9C107.89,47.34,106,43.13,103.4,39.53Z"/><path class="cls-3" d="M63.86,99.21a55.27,55.27,0,0,1-48-82.61,55.28,55.28,0,1,0,87.53,66A55.11,55.11,0,0,1,63.86,99.21Z"/><path class="cls-4" d="M45.85,46.11c-1.39-3.7-5.15-5.65-8.42-7.59a72.7,72.7,0,0,0-11.16-5.25c-1.74-.67-2.57,1.91-1.2,2.86,2.76,1.9,5.46,4,8.06,6.12-2.64,1.1-4.55,4.15-4.55,7.76,0,4.53,3,8.2,6.7,8.2S42,54.53,42,50c0-.31,0-.62,0-.93a7.2,7.2,0,0,0,.72.23C44.42,49.71,46.59,48.07,45.85,46.11Z"/><circle class="cls-5" cx="32.41" cy="46.89" r="2.17"/><path class="cls-4" d="M63.75,46.11c1.39-3.7,5.15-5.65,8.42-7.59a72.7,72.7,0,0,1,11.16-5.25c1.74-.67,2.57,1.91,1.2,2.86-2.76,1.9-5.46,4-8.06,6.12C79.11,43.34,81,46.39,81,50c0,4.53-3,8.2-6.7,8.2s-6.7-3.67-6.7-8.2c0-.31,0-.62,0-.93a7.2,7.2,0,0,1-.72.23C65.18,49.71,63,48.07,63.75,46.11Z"/><circle class="cls-5" cx="70.75" cy="48.5" r="2.17"/><path class="cls-4" d="M69.86,77.25C68,73.54,62.19,72.46,58.4,72.06a21.35,21.35,0,0,0-13.52,2.73,1.37,1.37,0,0,0,1.05,2.5c4.35-1,8.59-1.75,13.06-1,3.41.56,6.38,2.84,9.79,2.86A1.26,1.26,0,0,0,69.86,77.25Z"/></g></g></svg>