<svg xmlns="http://www.w3.org/2000/svg" viewBox="0 0 110.57 110.57"><defs><style>.cls-1{fill:#ffda00;}.cls-2{fill:#fcb813;}.cls-3{fill:#fff47c;}.cls-4{fill:#3c3c3c;}.cls-5{fill:#e83f64;}</style></defs><title>Ресурс 3</title><g id="Слой_2" data-name="Слой 2"><g id="OBJECTS"><circle class="cls-1" cx="55.28" cy="55.28" r="55.28"/><path class="cls-2" d="M63.86,99.21a55.27,55.27,0,0,1-48-82.61,55.28,55.28,0,1,0,87.53,66A55.11,55.11,0,0,1,63.86,99.21Z"/><path class="cls-3" d="M100.2,30.86C99,24.1,92.8,18,87.47,14.05,82.38,10.24,76,6.51,69.45,7.8a1.33,1.33,0,0,0-.7,2c3.59,4.3,8.88,6.83,13.13,10.43A53,53,0,0,1,88.75,27c1.84,2.26,3.28,4.78,5.6,6.59C96.45,35.25,100.76,34.13,100.2,30.86Z"/><path class="cls-3" d="M103.74,39.53C102,37.13,98,38.84,99,41.82s.74,6.28,1.18,9.44a3.81,3.81,0,0,0,3.45,3.54,3.74,3.74,0,0,0,4-2.9C108.23,47.34,106.37,43.13,103.74,39.53Z"/><path class="cls-4" d="M43.8,33.82c-2.35-2.74-7.44-5.15-11-7-1.66-.88-4.15.89-2.89,2.1s2.53,2.31,3.89,3.42C34.72,33,36,33.87,37,34.73c-4,2.58-9.81,4.32-11.45,8.09-.59,1.35,1.23,2.25,2.86,2.08,3.31-.36,5.72-2.38,8.17-3.92s5.5-2.92,7.18-4.85A1.75,1.75,0,0,0,43.8,33.82Z"/><path class="cls-4" d="M66.09,33.82c2.35-2.74,7.44-5.15,11-7,1.66-.88,4.15.89,2.89,2.1s-2.53,2.31-3.89,3.42c-.92.75-2.21,1.57-3.25,2.44,4,2.58,9.81,4.32,11.45,8.09.59,1.35-1.23,2.25-2.86,2.08-3.31-.36-5.72-2.38-8.17-3.92s-5.5-2.92-7.18-4.85A1.75,1.75,0,0,1,66.09,33.82Z"/><path class="cls-4" d="M28.09,56.2H83a4.43,4.43,0,0,1,4.44,4.59C87.06,70.26,79.42,91,54.87,91,32.65,91,23.57,70,23.65,60.59A4.44,4.44,0,0,1,28.09,56.2Z"/><path class="cls-5" d="M56.23,65C43.11,65,34.82,71,29.89,78A29.69,29.69,0,0,0,54.87,91C68,91,76.29,85.11,81.22,78.13A29.69,29.69,0,0,0,56.23,65Z"/></g></g></svg>